# xmcd
#
# Track frame offsets:
#	150
#	13603
#	30053
#	48762
#	65078
#	81509
#	95228
#	111060
#	126579
#	140182
#	154684
#	171321
#	189267
#	207345
#	228093
#	243800
#	259516
#	279375
#
# Disc length: 3897 seconds
#
# Revision: 0
# Processed by: cddbd v1.5.1PL2 Copyright (c) Steve Scherf et al.
# Submitted via: EasyCDDAExtractor 9.1.3.1
#
DISCID=f50f3712
DTITLE=La Banda Del Diablo - El Primero Del Verano
DYEAR=1900
DGENRE=Vários
TTITLE0=Opá Yo Viazé Un Corrá
TTITLE1=Hips Don't Lie
TTITLE2=Yo Te Siento
TTITLE3=El Beso (Contigo Me Voy)
TTITLE4=Chi-Ki-Cha
TTITLE5=Un Blody Mary
TTITLE6=Sultanas De Merkadillo
TTITLE7=Clavame
TTITLE8=Paquito Chocolatero
TTITLE9=Vacaciones
TTITLE10=Tu De Que Vas
TTITLE11=Drop It On Me
TTITLE12=Pirata De Bokita
TTITLE13=Llena De Luz Y Sal
TTITLE14=Caminando Por La Vida
TTITLE15=Pokito A Poko
TTITLE16=No Puedo Mas
TTITLE17=Zapatillas
EXTD=
EXTT0=
EXTT1=
EXTT2=
EXTT3=
EXTT4=
EXTT5=
EXTT6=
EXTT7=
EXTT8=
EXTT9=
EXTT10=
EXTT11=
EXTT12=
EXTT13=
EXTT14=
EXTT15=
EXTT16=
EXTT17=
PLAYORDER=
